<?xml version="1.0" encoding="UTF-8"?>
<!-- Created with Inkscape (http://www.inkscape.org/) -->
<svg width="22" height="22" version="1.1" viewBox="0 0 22 22" xmlns="http://www.w3.org/2000/svg">
 <defs>
  <radialGradient id="radialGradient2" cx="80.899" cy="85.07" r="11.088" gradientTransform="matrix(-9.6431e-8,1.2626,-1.2626,2.4683e-7,188.41,-17.145)" gradientUnits="userSpaceOnUse">
   <stop stop-color="#fe1e6e" offset=".28279"/>
   <stop stop-color="#630081" offset=".78532"/>
   <stop stop-color="#31108b" offset="1"/>
  </radialGradient>
 </defs>
 <g transform="translate(-70,-79)">
  <circle cx="81" cy="90" r="11" fill="url(#radialGradient2)" stroke-width="1.1098"/>
  <circle cx="81" cy="86" r="6" fill="#fff" stroke-width="1.2"/>
  <path transform="matrix(.74924 0 0 1.3347 .14588 .029176)" d="m102.48 66.075v-1.2431l2.4031-3.5156h1.0412v1.4728h-0.56614l-1.3936 2.0666v0.0079h3.5987v1.2115zm2.8822 1.1402v-5.8989h1.544v5.8989zm2.7594 0v-1.1481l2.217-1.7895q0.16627-0.13461 0.34443-0.28505 0.17815-0.1544 0.30088-0.34839 0.12273-0.19795 0.12273-0.45133 0-0.20983-0.091-0.36819-0.0911-0.15836-0.25734-0.24546-0.16232-0.09106-0.38402-0.09106-0.23754 0-0.41966 0.11085-0.18211 0.11085-0.28505 0.32464-0.099 0.21379-0.099 0.52259h-1.5084q0-0.68887 0.28109-1.1877 0.28108-0.49884 0.79971-0.76805 0.51864-0.26921 1.2352-0.26921 0.65323 0 1.1639 0.22566 0.51072 0.22566 0.79972 0.64928 0.29297 0.41965 0.29297 1.0056 0 0.43945-0.17024 0.78388-0.16627 0.34443-0.46716 0.64928-0.29693 0.30088-0.68887 0.62156l-0.95412 0.77597v0.0079h2.2962v1.2748z" fill="#31108b" stroke-width=".67567" aria-label="42"/>
 </g>
</svg>
