<svg width="48" height="48" version="1.1" viewBox="0 0 48 48" xmlns="http://www.w3.org/2000/svg">

 <g>
  <path d="m1 3 2-2 5 5 3-3 3 1-10 10-1-3 3-3z" fill="#92e9ff" style="paint-order:stroke fill markers"/>
  <path d="m8 11 13 12h2v-2l-12-13z" fill="#2ad4ff" style="paint-order:stroke fill markers"/>
 </g>
 <g>
  <path d="m12 27-2 2 1 2-7-1-2 2 10 9 10-9-2-2-7 1 1-2z" fill="#ff2a67" style="paint-order:stroke fill markers"/>
  <path d="m8 44 3-3 1 1 1-1 3 3z" fill="#ff618e" style="paint-order:stroke fill markers"/>
 </g>
 <g fill="#5aa02c">
  <path d="m26 8v-6h6l14 18-2 2z" style="paint-order:stroke fill markers"/>
  <path d="m33 14.445v3.5547h4.5723z" fill-opacity=".73725" style="paint-order:stroke fill markers"/>
  <path d="m34.555 4 4.4453 5.7148v-5.7148z" fill-opacity=".73725" style="paint-order:stroke fill markers"/>
 </g>
 <g>
  <path d="m32 29-4 7 4 7h8l4-7-4-7h-8zm2 4 2 1 2-1v2l2 1-2 1v2l-2-1-2 1v-2l-2-1 2-1v-2z" fill="#ffa000" style="paint-order:stroke fill markers"/>
  <rect x="35" y="35" width="2" height="2" fill="#ffcd79" style="paint-order:stroke fill markers"/>
 </g>
</svg>
