<?xml version="1.0" encoding="UTF-8" standalone="no"?>
<!-- Created with Inkscape (http://www.inkscape.org/) -->

<svg
   width="9.8578367mm"
   height="1.9885091mm"
   viewBox="0 0 9.8578367 1.9885091"
   version="1.1"
   id="svg5"
   inkscape:version="1.2.2 (b0a8486541, 2022-12-01)"
   sodipodi:docname="logo.svg"
   xmlns:inkscape="http://www.inkscape.org/namespaces/inkscape"
   xmlns:sodipodi="http://sodipodi.sourceforge.net/DTD/sodipodi-0.dtd"
   xmlns="http://www.w3.org/2000/svg"
   xmlns:svg="http://www.w3.org/2000/svg">
  <sodipodi:namedview
     id="namedview7"
     pagecolor="#ffffff"
     bordercolor="#000000"
     borderopacity="0.25"
     inkscape:showpageshadow="2"
     inkscape:pageopacity="0.0"
     inkscape:pagecheckerboard="0"
     inkscape:deskcolor="#d1d1d1"
     inkscape:document-units="mm"
     showgrid="false"
     inkscape:zoom="6.7277216"
     inkscape:cx="53.361304"
     inkscape:cy="-13.451805"
     inkscape:window-width="1920"
     inkscape:window-height="1007"
     inkscape:window-x="0"
     inkscape:window-y="0"
     inkscape:window-maximized="1"
     inkscape:current-layer="layer1">
    <inkscape:grid
       type="xygrid"
       id="grid132"
       originx="-71.509729"
       originy="-29.785779" />
  </sodipodi:namedview>
  <defs
     id="defs2" />
  <g
     inkscape:label="Capa 1"
     inkscape:groupmode="layer"
     id="layer1"
     transform="translate(-71.509731,-29.785779)">
    <rect
       style="fill:#31108b;fill-opacity:1;stroke-width:2.45798;stroke-linecap:round;stroke-linejoin:round;paint-order:stroke fill markers"
       id="rect1725"
       width="11.227952"
       height="3.3231595"
       x="70.892105"
       y="34.410122" />
    <g
       id="g1711">
      <path
         d="m 72.472814,31.774077 q -0.275167,0 -0.488421,-0.08943 -0.209814,-0.08943 -0.333639,-0.24765 -0.123825,-0.15822 -0.141023,-0.357716 h 0.732631 q 0.01376,0.08599 0.07223,0.127264 0.06191,0.04127 0.154781,0.04127 0.05847,0 0.09287,-0.02408 0.0344,-0.02752 0.0344,-0.06535 0,-0.06535 -0.07223,-0.09287 -0.07223,-0.02752 -0.24421,-0.06191 -0.209814,-0.04127 -0.347397,-0.08943 -0.134144,-0.04815 -0.237332,-0.1651 -0.09975,-0.116945 -0.09975,-0.32332 0,-0.178858 0.09287,-0.323321 0.09631,-0.147902 0.282046,-0.230452 0.185737,-0.08599 0.450585,-0.08599 0.392112,0 0.612245,0.192616 0.223573,0.192617 0.268287,0.502179 H 72.62416 q -0.0172,-0.07911 -0.07223,-0.120385 -0.05503,-0.04472 -0.147902,-0.04472 -0.05847,0 -0.08943,0.02408 -0.03096,0.02064 -0.03096,0.06535 0,0.05847 0.07223,0.08943 0.07223,0.02752 0.230452,0.05847 0.209814,0.04128 0.354276,0.09287 0.144463,0.05159 0.25109,0.178858 0.106627,0.123825 0.106627,0.343958 0,0.171979 -0.09975,0.309562 -0.09975,0.137583 -0.288925,0.216694 -0.185737,0.07911 -0.436826,0.07911 z"
         style="font-weight:900;font-size:3.43958px;line-height:1.2;font-family:Poppins;-inkscape-font-specification:'Poppins Heavy';fill:#fe1e6e;stroke-width:2.45798;stroke-linecap:round;stroke-linejoin:round;paint-order:stroke fill markers"
         id="path1669" />
      <path
         d="m 73.49781,30.780038 q 0,-0.302683 0.123825,-0.526255 0.127264,-0.227013 0.350837,-0.347398 0.227012,-0.120385 0.515937,-0.120385 0.378354,0 0.636322,0.213254 0.261408,0.213254 0.3302,0.591608 H 74.64663 q -0.04471,-0.151342 -0.175419,-0.151342 -0.09287,0 -0.147902,0.08599 -0.05159,0.08599 -0.05159,0.254528 0,0.16854 0.05159,0.254529 0.05503,0.08599 0.147902,0.08599 0.130704,0 0.175419,-0.151342 h 0.808301 q -0.06879,0.378354 -0.3302,0.591608 -0.257968,0.213254 -0.636322,0.213254 -0.288925,0 -0.515937,-0.120385 -0.223573,-0.120386 -0.350837,-0.343958 -0.123825,-0.227013 -0.123825,-0.529696 z"
         style="font-weight:900;font-size:3.43958px;line-height:1.2;font-family:Poppins;-inkscape-font-specification:'Poppins Heavy';fill:#fe1e6e;stroke-width:2.45798;stroke-linecap:round;stroke-linejoin:round;paint-order:stroke fill markers"
         id="path1671" />
      <path
         id="path1687"
         style="font-weight:900;font-size:3.43958px;line-height:1.2;font-family:Poppins;-inkscape-font-specification:'Poppins Heavy';fill:#fe1e6e;stroke-width:2.45798;stroke-linecap:round;stroke-linejoin:round;paint-order:stroke fill markers"
         d="m 76.617546,29.785779 c -0.19491,0 -0.370139,0.04015 -0.526067,0.120406 -0.155926,0.08026 -0.279024,0.19644 -0.368452,0.347782 -0.08714,0.149048 -0.130742,0.324279 -0.130742,0.526066 0,0.201789 0.04361,0.378342 0.130742,0.529684 0.08943,0.149048 0.212526,0.263908 0.368452,0.344165 0.155928,0.08026 0.331157,0.120406 0.526067,0.120406 0.194908,0 0.370138,-0.04015 0.526066,-0.120406 0.155926,-0.08026 0.277699,-0.195117 0.364835,-0.344165 0.08943,-0.151342 0.133842,-0.327895 0.133842,-0.529684 0,-0.201787 -0.04441,-0.377018 -0.133842,-0.526066 -0.08714,-0.151342 -0.208909,-0.267526 -0.364835,-0.347782 -0.155928,-0.08026 -0.331158,-0.120406 -0.526066,-0.120406 z m -0.396875,0.427881 c 0.0021,-5.6e-5 0.0046,0 0.0067,0 0.03455,0 0.06538,0.007 0.09302,0.02119 0.02763,0.01422 0.04916,0.03519 0.0646,0.06201 0.01582,0.02642 0.02377,0.05726 0.02377,0.09302 0,0.03576 -0.0079,0.06723 -0.02377,0.09405 -0.01544,0.02642 -0.03696,0.04676 -0.0646,0.06098 -0.02764,0.01424 -0.05848,0.02119 -0.09302,0.02119 -0.03455,0 -0.06589,-0.007 -0.09354,-0.02119 -0.02763,-0.01423 -0.04926,-0.03456 -0.06511,-0.06098 -0.01547,-0.02682 -0.02326,-0.05829 -0.02326,-0.09405 0,-0.03577 0.0078,-0.0666 0.02326,-0.09302 0.01585,-0.02682 0.03747,-0.04779 0.06511,-0.06201 0.02591,-0.01335 0.05484,-0.02035 0.08682,-0.02119 z m 0.780314,0 c 0.0021,-5.6e-5 0.004,0 0.0062,0 0.03455,0 0.06589,0.0069 0.09353,0.02119 0.02764,0.01422 0.04926,0.03519 0.06511,0.06201 0.01544,0.02642 0.02325,0.05725 0.02325,0.09302 0,0.03576 -0.0078,0.06723 -0.02325,0.09405 -0.01585,0.02642 -0.03748,0.04675 -0.06511,0.06098 -0.02764,0.01422 -0.05898,0.02119 -0.09353,0.02119 -0.03454,0 -0.06538,-0.0069 -0.09302,-0.02119 -0.02764,-0.01422 -0.04915,-0.03456 -0.06459,-0.06098 -0.01585,-0.02682 -0.02377,-0.05829 -0.02377,-0.09405 0,-0.03576 0.008,-0.0666 0.02377,-0.09302 0.01544,-0.02682 0.03696,-0.04779 0.06459,-0.06201 0.02591,-0.01333 0.05484,-0.02035 0.08682,-0.02119 z m -0.390157,0.390157 c 0.0021,-5.6e-5 0.0046,0 0.0067,0 0.03455,0 0.06538,0.007 0.09302,0.02119 0.02763,0.01422 0.04916,0.03519 0.0646,0.06201 0.01582,0.02642 0.02377,0.05726 0.02377,0.09302 0,0.03576 -0.0079,0.06723 -0.02377,0.09405 -0.01544,0.02642 -0.03696,0.04676 -0.0646,0.06098 -0.02764,0.01424 -0.05848,0.02119 -0.09302,0.02119 -0.03455,0 -0.06589,-0.007 -0.09354,-0.02119 -0.02763,-0.01423 -0.04926,-0.03456 -0.06511,-0.06098 -0.01547,-0.02682 -0.02325,-0.05829 -0.02325,-0.09405 0,-0.03577 0.0078,-0.0666 0.02325,-0.09302 0.01585,-0.02682 0.03747,-0.04779 0.06511,-0.06201 0.02591,-0.01335 0.05484,-0.02036 0.08682,-0.02119 z m -0.390157,0.390157 c 0.0021,-5.6e-5 0.004,0 0.0062,0 0.03455,0 0.06589,0.0069 0.09353,0.02119 0.02764,0.01422 0.04926,0.03519 0.06511,0.06201 0.01544,0.02642 0.02325,0.05725 0.02325,0.09302 0,0.03576 -0.0078,0.06723 -0.02325,0.09405 -0.01585,0.02642 -0.03748,0.04675 -0.06511,0.06098 -0.02764,0.01422 -0.05898,0.02119 -0.09353,0.02119 -0.03454,0 -0.06538,-0.0069 -0.09302,-0.02119 -0.02764,-0.01422 -0.04915,-0.03456 -0.06459,-0.06098 -0.01585,-0.02682 -0.02377,-0.05829 -0.02377,-0.09405 0,-0.03576 0.008,-0.0666 0.02377,-0.09302 0.01544,-0.02682 0.03696,-0.04779 0.06459,-0.06201 0.02591,-0.01333 0.05484,-0.02035 0.08682,-0.02119 z m 0.780314,0 c 0.0021,-5.6e-5 0.0046,0 0.0067,0 0.03455,0 0.06538,0.007 0.09302,0.02119 0.02763,0.01422 0.04916,0.03519 0.0646,0.06201 0.01582,0.02642 0.02377,0.05726 0.02377,0.09302 0,0.03576 -0.0079,0.06723 -0.02377,0.09405 -0.01544,0.02642 -0.03696,0.04676 -0.0646,0.06098 -0.02764,0.01424 -0.05848,0.02119 -0.09302,0.02119 -0.03455,0 -0.0659,-0.007 -0.09354,-0.02119 -0.02763,-0.01423 -0.04926,-0.03456 -0.06511,-0.06098 -0.01547,-0.02682 -0.02325,-0.05829 -0.02325,-0.09405 0,-0.03577 0.0078,-0.0666 0.02325,-0.09302 0.01585,-0.02682 0.03747,-0.04779 0.06511,-0.06201 0.02591,-0.01335 0.05484,-0.02035 0.08682,-0.02119 z" />
      <path
         d="m 78.646858,30.167793 q 0.116945,-0.168539 0.285485,-0.268287 0.168539,-0.103187 0.350837,-0.103187 v 0.81518 h -0.216694 q -0.216693,0 -0.319881,0.07567 -0.09975,0.07567 -0.09975,0.268287 V 31.75 h -0.763587 v -1.939923 h 0.763587 z"
         style="font-weight:900;font-size:3.43958px;line-height:1.2;font-family:Poppins;-inkscape-font-specification:'Poppins Heavy';fill:#fe1e6e;stroke-width:2.45798;stroke-linecap:round;stroke-linejoin:round;paint-order:stroke fill markers"
         id="path1675" />
      <path
         d="m 81.367568,30.762841 q 0,0.07911 -0.01032,0.151341 h -1.22793 q 0.0172,0.251089 0.209814,0.251089 0.123825,0 0.178858,-0.113506 h 0.808301 q -0.04127,0.206375 -0.175418,0.371475 -0.130704,0.16166 -0.333639,0.257968 -0.199496,0.09287 -0.440267,0.09287 -0.288924,0 -0.515937,-0.120385 -0.223572,-0.120386 -0.350837,-0.343958 -0.123825,-0.227013 -0.123825,-0.529696 0,-0.302683 0.123825,-0.526255 0.127265,-0.227013 0.350837,-0.347398 0.227013,-0.120385 0.515937,-0.120385 0.288925,0 0.512498,0.120385 0.227012,0.116946 0.350837,0.337079 0.127264,0.220133 0.127264,0.519377 z m -0.773905,-0.182298 q 0,-0.09631 -0.06191,-0.144463 -0.06191,-0.05159 -0.154782,-0.05159 -0.202935,0 -0.237331,0.196056 z"
         style="font-weight:900;font-size:3.43958px;line-height:1.2;font-family:Poppins;-inkscape-font-specification:'Poppins Heavy';fill:#fe1e6e;stroke-width:2.45798;stroke-linecap:round;stroke-linejoin:round;paint-order:stroke fill markers"
         id="path1677" />
    </g>
    <g
       id="g1723"
       transform="translate(0,5.2916667)"
       style="fill:#ffffff">
      <path
         d="m 72.472814,31.774077 q -0.275167,0 -0.488421,-0.08943 -0.209814,-0.08943 -0.333639,-0.24765 -0.123825,-0.15822 -0.141023,-0.357716 h 0.732631 q 0.01376,0.08599 0.07223,0.127264 0.06191,0.04127 0.154781,0.04127 0.05847,0 0.09287,-0.02408 0.0344,-0.02752 0.0344,-0.06535 0,-0.06535 -0.07223,-0.09287 -0.07223,-0.02752 -0.24421,-0.06191 -0.209814,-0.04127 -0.347397,-0.08943 -0.134144,-0.04815 -0.237332,-0.1651 -0.09975,-0.116945 -0.09975,-0.32332 0,-0.178858 0.09287,-0.323321 0.09631,-0.147902 0.282046,-0.230452 0.185737,-0.08599 0.450585,-0.08599 0.392112,0 0.612245,0.192616 0.223573,0.192617 0.268287,0.502179 H 72.62416 q -0.0172,-0.07911 -0.07223,-0.120385 -0.05503,-0.04472 -0.147902,-0.04472 -0.05847,0 -0.08943,0.02408 -0.03096,0.02064 -0.03096,0.06535 0,0.05847 0.07223,0.08943 0.07223,0.02752 0.230452,0.05847 0.209814,0.04128 0.354276,0.09287 0.144463,0.05159 0.25109,0.178858 0.106627,0.123825 0.106627,0.343958 0,0.171979 -0.09975,0.309562 -0.09975,0.137583 -0.288925,0.216694 -0.185737,0.07911 -0.436826,0.07911 z"
         style="font-weight:900;font-size:3.43958px;line-height:1.2;font-family:Poppins;-inkscape-font-specification:'Poppins Heavy';fill:#ffffff;stroke-width:2.45798;stroke-linecap:round;stroke-linejoin:round;paint-order:stroke fill markers"
         id="path1713" />
      <path
         d="m 73.49781,30.780038 q 0,-0.302683 0.123825,-0.526255 0.127264,-0.227013 0.350837,-0.347398 0.227012,-0.120385 0.515937,-0.120385 0.378354,0 0.636322,0.213254 0.261408,0.213254 0.3302,0.591608 H 74.64663 q -0.04471,-0.151342 -0.175419,-0.151342 -0.09287,0 -0.147902,0.08599 -0.05159,0.08599 -0.05159,0.254528 0,0.16854 0.05159,0.254529 0.05503,0.08599 0.147902,0.08599 0.130704,0 0.175419,-0.151342 h 0.808301 q -0.06879,0.378354 -0.3302,0.591608 -0.257968,0.213254 -0.636322,0.213254 -0.288925,0 -0.515937,-0.120385 -0.223573,-0.120386 -0.350837,-0.343958 -0.123825,-0.227013 -0.123825,-0.529696 z"
         style="font-weight:900;font-size:3.43958px;line-height:1.2;font-family:Poppins;-inkscape-font-specification:'Poppins Heavy';fill:#ffffff;stroke-width:2.45798;stroke-linecap:round;stroke-linejoin:round;paint-order:stroke fill markers"
         id="path1715" />
      <path
         id="path1717"
         style="font-weight:900;font-size:3.43958px;line-height:1.2;font-family:Poppins;-inkscape-font-specification:'Poppins Heavy';fill:#ffffff;stroke-width:2.45798;stroke-linecap:round;stroke-linejoin:round;paint-order:stroke fill markers"
         d="m 76.617546,29.785779 c -0.19491,0 -0.370139,0.04015 -0.526067,0.120406 -0.155926,0.08026 -0.279024,0.19644 -0.368452,0.347782 -0.08714,0.149048 -0.130742,0.324279 -0.130742,0.526066 0,0.201789 0.04361,0.378342 0.130742,0.529684 0.08943,0.149048 0.212526,0.263908 0.368452,0.344165 0.155928,0.08026 0.331157,0.120406 0.526067,0.120406 0.194908,0 0.370138,-0.04015 0.526066,-0.120406 0.155926,-0.08026 0.277699,-0.195117 0.364835,-0.344165 0.08943,-0.151342 0.133842,-0.327895 0.133842,-0.529684 0,-0.201787 -0.04441,-0.377018 -0.133842,-0.526066 -0.08714,-0.151342 -0.208909,-0.267526 -0.364835,-0.347782 -0.155928,-0.08026 -0.331158,-0.120406 -0.526066,-0.120406 z m -0.396875,0.427881 c 0.0021,-5.6e-5 0.0046,0 0.0067,0 0.03455,0 0.06538,0.007 0.09302,0.02119 0.02763,0.01422 0.04916,0.03519 0.0646,0.06201 0.01582,0.02642 0.02377,0.05726 0.02377,0.09302 0,0.03576 -0.0079,0.06723 -0.02377,0.09405 -0.01544,0.02642 -0.03696,0.04676 -0.0646,0.06098 -0.02764,0.01424 -0.05848,0.02119 -0.09302,0.02119 -0.03455,0 -0.06589,-0.007 -0.09354,-0.02119 -0.02763,-0.01423 -0.04926,-0.03456 -0.06511,-0.06098 -0.01547,-0.02682 -0.02326,-0.05829 -0.02326,-0.09405 0,-0.03577 0.0078,-0.0666 0.02326,-0.09302 0.01585,-0.02682 0.03747,-0.04779 0.06511,-0.06201 0.02591,-0.01335 0.05484,-0.02035 0.08682,-0.02119 z m 0.780314,0 c 0.0021,-5.6e-5 0.004,0 0.0062,0 0.03455,0 0.06589,0.0069 0.09353,0.02119 0.02764,0.01422 0.04926,0.03519 0.06511,0.06201 0.01544,0.02642 0.02325,0.05725 0.02325,0.09302 0,0.03576 -0.0078,0.06723 -0.02325,0.09405 -0.01585,0.02642 -0.03748,0.04675 -0.06511,0.06098 -0.02764,0.01422 -0.05898,0.02119 -0.09353,0.02119 -0.03454,0 -0.06538,-0.0069 -0.09302,-0.02119 -0.02764,-0.01422 -0.04915,-0.03456 -0.06459,-0.06098 -0.01585,-0.02682 -0.02377,-0.05829 -0.02377,-0.09405 0,-0.03576 0.008,-0.0666 0.02377,-0.09302 0.01544,-0.02682 0.03696,-0.04779 0.06459,-0.06201 0.02591,-0.01333 0.05484,-0.02035 0.08682,-0.02119 z m -0.390157,0.390157 c 0.0021,-5.6e-5 0.0046,0 0.0067,0 0.03455,0 0.06538,0.007 0.09302,0.02119 0.02763,0.01422 0.04916,0.03519 0.0646,0.06201 0.01582,0.02642 0.02377,0.05726 0.02377,0.09302 0,0.03576 -0.0079,0.06723 -0.02377,0.09405 -0.01544,0.02642 -0.03696,0.04676 -0.0646,0.06098 -0.02764,0.01424 -0.05848,0.02119 -0.09302,0.02119 -0.03455,0 -0.06589,-0.007 -0.09354,-0.02119 -0.02763,-0.01423 -0.04926,-0.03456 -0.06511,-0.06098 -0.01547,-0.02682 -0.02325,-0.05829 -0.02325,-0.09405 0,-0.03577 0.0078,-0.0666 0.02325,-0.09302 0.01585,-0.02682 0.03747,-0.04779 0.06511,-0.06201 0.02591,-0.01335 0.05484,-0.02036 0.08682,-0.02119 z m -0.390157,0.390157 c 0.0021,-5.6e-5 0.004,0 0.0062,0 0.03455,0 0.06589,0.0069 0.09353,0.02119 0.02764,0.01422 0.04926,0.03519 0.06511,0.06201 0.01544,0.02642 0.02325,0.05725 0.02325,0.09302 0,0.03576 -0.0078,0.06723 -0.02325,0.09405 -0.01585,0.02642 -0.03748,0.04675 -0.06511,0.06098 -0.02764,0.01422 -0.05898,0.02119 -0.09353,0.02119 -0.03454,0 -0.06538,-0.0069 -0.09302,-0.02119 -0.02764,-0.01422 -0.04915,-0.03456 -0.06459,-0.06098 -0.01585,-0.02682 -0.02377,-0.05829 -0.02377,-0.09405 0,-0.03576 0.008,-0.0666 0.02377,-0.09302 0.01544,-0.02682 0.03696,-0.04779 0.06459,-0.06201 0.02591,-0.01333 0.05484,-0.02035 0.08682,-0.02119 z m 0.780314,0 c 0.0021,-5.6e-5 0.0046,0 0.0067,0 0.03455,0 0.06538,0.007 0.09302,0.02119 0.02763,0.01422 0.04916,0.03519 0.0646,0.06201 0.01582,0.02642 0.02377,0.05726 0.02377,0.09302 0,0.03576 -0.0079,0.06723 -0.02377,0.09405 -0.01544,0.02642 -0.03696,0.04676 -0.0646,0.06098 -0.02764,0.01424 -0.05848,0.02119 -0.09302,0.02119 -0.03455,0 -0.0659,-0.007 -0.09354,-0.02119 -0.02763,-0.01423 -0.04926,-0.03456 -0.06511,-0.06098 -0.01547,-0.02682 -0.02325,-0.05829 -0.02325,-0.09405 0,-0.03577 0.0078,-0.0666 0.02325,-0.09302 0.01585,-0.02682 0.03747,-0.04779 0.06511,-0.06201 0.02591,-0.01335 0.05484,-0.02035 0.08682,-0.02119 z" />
      <path
         d="m 78.646858,30.167793 q 0.116945,-0.168539 0.285485,-0.268287 0.168539,-0.103187 0.350837,-0.103187 v 0.81518 h -0.216694 q -0.216693,0 -0.319881,0.07567 -0.09975,0.07567 -0.09975,0.268287 V 31.75 h -0.763587 v -1.939923 h 0.763587 z"
         style="font-weight:900;font-size:3.43958px;line-height:1.2;font-family:Poppins;-inkscape-font-specification:'Poppins Heavy';fill:#ffffff;stroke-width:2.45798;stroke-linecap:round;stroke-linejoin:round;paint-order:stroke fill markers"
         id="path1719" />
      <path
         d="m 81.367568,30.762841 q 0,0.07911 -0.01032,0.151341 h -1.22793 q 0.0172,0.251089 0.209814,0.251089 0.123825,0 0.178858,-0.113506 h 0.808301 q -0.04127,0.206375 -0.175418,0.371475 -0.130704,0.16166 -0.333639,0.257968 -0.199496,0.09287 -0.440267,0.09287 -0.288924,0 -0.515937,-0.120385 -0.223572,-0.120386 -0.350837,-0.343958 -0.123825,-0.227013 -0.123825,-0.529696 0,-0.302683 0.123825,-0.526255 0.127265,-0.227013 0.350837,-0.347398 0.227013,-0.120385 0.515937,-0.120385 0.288925,0 0.512498,0.120385 0.227012,0.116946 0.350837,0.337079 0.127264,0.220133 0.127264,0.519377 z m -0.773905,-0.182298 q 0,-0.09631 -0.06191,-0.144463 -0.06191,-0.05159 -0.154782,-0.05159 -0.202935,0 -0.237331,0.196056 z"
         style="font-weight:900;font-size:3.43958px;line-height:1.2;font-family:Poppins;-inkscape-font-specification:'Poppins Heavy';fill:#ffffff;stroke-width:2.45798;stroke-linecap:round;stroke-linejoin:round;paint-order:stroke fill markers"
         id="path1721" />
    </g>
  </g>
</svg>
