<svg width="72" height="72" version="1.1" viewBox="0 0 72 72" xml:space="preserve" xmlns="http://www.w3.org/2000/svg"><g transform="translate(-67.204 -56.621)" stroke-linecap="round" stroke-linejoin="round" stroke-width="5.4"><g id="match0"><rect x="68.204" y="72.621" width="5" height="45" ry=".99999" style="paint-order:markers stroke fill"/><rect x="67.204" y="66.621" width="7" height="14" ry="2" fill="#f00" style="paint-order:markers stroke fill"/></g><g id="match1"><rect transform="rotate(90)" x="57.621" y="-123.2" width="5" height="45" ry=".99999" style="paint-order:markers stroke fill"/><rect transform="rotate(90)" x="56.621" y="-129.2" width="7" height="14" ry="2" fill="#f00" style="paint-order:markers stroke fill"/></g><g id="match2"><rect transform="scale(-1)" x="-138.2" y="-112.62" width="5" height="45" ry=".99999" style="paint-order:markers stroke fill"/><rect transform="scale(-1)" x="-139.2" y="-118.62" width="7" height="14" ry="2" fill="#f00" style="paint-order:markers stroke fill"/></g><g id="match3"><rect transform="rotate(-90)" x="-127.62" y="83.204" width="5" height="45" ry=".99999" style="paint-order:markers stroke fill"/><rect transform="rotate(-90)" x="-128.62" y="77.204" width="7" height="14" ry="2" fill="#f00" style="paint-order:markers stroke fill"/></g><g id="match4"><rect transform="rotate(45)" x="135.97" y="-26.776" width="5" height="45" ry=".99999" style="paint-order:markers stroke fill"/><rect transform="rotate(45)" x="134.97" y="-32.776" width="7" height="14" ry="2" fill="#f00" style="paint-order:markers stroke fill"/></g><g id="match5"><rect transform="matrix(-.70711 .70711 .70711 .70711 0 0)" x="-9.9836" y="119.18" width="5" height="45" ry=".99999" style="paint-order:markers stroke fill"/><rect transform="matrix(-.70711 .70711 .70711 .70711 0 0)" x="-10.984" y="113.18" width="7" height="14" ry="2" fill="#f00" style="paint-order:markers stroke fill"/></g></g></svg>
