<?xml version="1.0" encoding="UTF-8" standalone="no"?>
<!-- Created with Inkscape (http://www.inkscape.org/) -->

<svg
   width="66.35096mm"
   height="105.23492mm"
   viewBox="0 0 66.35096 105.23492"
   version="1.1"
   id="svg1"
   xml:space="preserve"
   inkscape:version="1.4 (e7c3feb100, 2024-10-09)"
   sodipodi:docname="hand.svg"
   xmlns:inkscape="http://www.inkscape.org/namespaces/inkscape"
   xmlns:sodipodi="http://sodipodi.sourceforge.net/DTD/sodipodi-0.dtd"
   xmlns="http://www.w3.org/2000/svg"
   xmlns:svg="http://www.w3.org/2000/svg"><sodipodi:namedview
     id="namedview1"
     pagecolor="#ffffff"
     bordercolor="#000000"
     borderopacity="0.25"
     inkscape:showpageshadow="2"
     inkscape:pageopacity="0.0"
     inkscape:pagecheckerboard="0"
     inkscape:deskcolor="#d1d1d1"
     inkscape:document-units="mm"
     inkscape:zoom="0.70743946"
     inkscape:cx="118.0313"
     inkscape:cy="207.79163"
     inkscape:window-width="1366"
     inkscape:window-height="700"
     inkscape:window-x="0"
     inkscape:window-y="0"
     inkscape:window-maximized="1"
     inkscape:current-layer="layer1" /><defs
     id="defs1" /><g
     inkscape:label="Capa 1"
     inkscape:groupmode="layer"
     id="layer1"
     transform="translate(-64.902285,-108.71171)"><path
       id="path1"
       style="fill:#000000;fill-opacity:1;stroke:none;stroke-width:0.264583"
       d="m 85.163277,108.71171 c -18.776785,0.91067 -13.86612,6.7964 -6.876583,48.75361 0,0 -13.093064,12.05471 -13.379028,20.50935 -0.285964,8.45464 10.889864,19.82047 18.04696,35.97196 l 3.169833,-1.3901 c -2.246547,-5.80375 -18.853217,-27.45125 -19.809127,-33.43103 -1.02534,-6.4141 10.468313,-19.79283 12.028206,-20.03909 l 2.52181,12.88707 c 0,0 -2.206663,4.25347 -1.981274,6.24045 0.12098,1.06653 5.042069,6.02857 5.042069,6.02857 l 3.345016,6.78047 c -5.493594,-26.92464 -8.836797,-44.53108 -13.068453,-70.24326 -0.756352,-5.40617 0.111059,-11.5442 10.097058,-10.96367 l 8.423775,35.89031 c 0,0 4.995239,-7.24991 9.748761,-6.92929 4.75351,0.32061 5.86217,5.06429 5.86217,5.06429 0,0 2.20112,-3.03394 6.3252,-1.79989 4.12407,1.23405 4.31756,5.302 4.31756,5.302 2.68387,-0.8375 11.28992,1.14843 10.60659,11.60188 -0.78777,12.05115 -1.29234,23.15119 0.0729,34.51779 l 1.54719,-0.67851 c -1.90183,-12.71496 0.40788,-24.80855 0,-34.49402 -0.40788,-9.68547 -8.48903,-12.27608 -11.48302,-12.1729 0,0 -1.25025,-3.88293 -4.87206,-5.10409 -3.62181,-1.22117 -6.2885,0.55914 -6.2885,0.55914 0,0 -2.11065,-4.16797 -6.80579,-3.78168 -4.695131,0.38628 -6.973051,3.37994 -8.46098,4.76922 -2.638697,-13.57131 -6.114306,-25.36403 -8.130253,-33.84858 z" /></g></svg>
